<svg width="48" height="48" viewBox="0 0 48 48" fill="none" xmlns="http://www.w3.org/2000/svg">
<path d="M8 37.5C7.18 37.5 6.5 36.82 6.5 36V22C6.5 21.18 7.18 20.5 8 20.5C8.82 20.5 9.5 21.18 9.5 22V36C9.5 36.82 8.82 37.5 8 37.5Z" fill="#292D32"/>
<path d="M16 37.5C15.18 37.5 14.5 36.82 14.5 36V22C14.5 21.18 15.18 20.5 16 20.5C16.82 20.5 17.5 21.18 17.5 22V36C17.5 36.82 16.82 37.5 16 37.5Z" fill="#72E485"/>
<path d="M24 37.5C23.18 37.5 22.5 36.82 22.5 36V22C22.5 21.18 23.18 20.5 24 20.5C24.82 20.5 25.5 21.18 25.5 22V36C25.5 36.82 24.82 37.5 24 37.5Z" fill="#72E485"/>
<path d="M32 37.5C31.18 37.5 30.5 36.82 30.5 36V22C30.5 21.18 31.18 20.5 32 20.5C32.82 20.5 33.5 21.18 33.5 22V36C33.5 36.82 32.82 37.5 32 37.5Z" fill="#72E485"/>
<path d="M40 37.5C39.18 37.5 38.5 36.82 38.5 36V22C38.5 21.18 39.18 20.5 40 20.5C40.82 20.5 41.5 21.18 41.5 22V36C41.5 36.82 40.82 37.5 40 37.5Z" fill="#292D32"/>
<path d="M46 45.5H2C1.18 45.5 0.5 44.82 0.5 44C0.5 43.18 1.18 42.5 2 42.5H46C46.82 42.5 47.5 43.18 47.5 44C47.5 44.82 46.82 45.5 46 45.5Z" fill="#292D32"/>
<path d="M24 18.5C21.52 18.5 19.5 16.48 19.5 14C19.5 11.52 21.52 9.5 24 9.5C26.48 9.5 28.5 11.52 28.5 14C28.5 16.48 26.48 18.5 24 18.5ZM24 12.5C23.18 12.5 22.5 13.18 22.5 14C22.5 14.82 23.18 15.5 24 15.5C24.82 15.5 25.5 14.82 25.5 14C25.5 13.18 24.82 12.5 24 12.5Z" fill="#292D32"/>
<path d="M42 23.5H6C4.08 23.5 2.5 21.92 2.5 20V13.36C2.5 12 3.43995 10.62 4.69995 10.12L22.7 2.92007C23.46 2.62007 24.54 2.62007 25.3 2.92007L43.3 10.12C44.56 10.62 45.5 12.02 45.5 13.36V20C45.5 21.92 43.92 23.5 42 23.5ZM24 5.68008C23.92 5.68008 23.84 5.67998 23.8 5.69998L5.81995 12.9C5.69995 12.96 5.5 13.22 5.5 13.36V20C5.5 20.28 5.72 20.5 6 20.5H42C42.28 20.5 42.5 20.28 42.5 20V13.36C42.5 13.22 42.3201 12.96 42.1801 12.9L24.1801 5.69998C24.1401 5.67998 24.08 5.68008 24 5.68008Z" fill="#292D32"/>
<path d="M44 45.5H4C3.18 45.5 2.5 44.82 2.5 44V38C2.5 36.08 4.08 34.5 6 34.5H42C43.92 34.5 45.5 36.08 45.5 38V44C45.5 44.82 44.82 45.5 44 45.5ZM5.5 42.5H42.5V38C42.5 37.72 42.28 37.5 42 37.5H6C5.72 37.5 5.5 37.72 5.5 38V42.5Z" fill="#292D32"/>
</svg>
