<svg width="44" height="44" viewBox="0 0 44 44" fill="none" xmlns="http://www.w3.org/2000/svg">
<path d="M40.3333 27.5C40.3333 34.595 34.595 40.3333 27.5 40.3333L29.425 37.125" stroke="#40B954" stroke-width="2.5" stroke-linecap="round" stroke-linejoin="round"/>
<path d="M3.66667 16.5C3.66667 9.40496 9.40501 3.66663 16.5 3.66663L14.575 6.87496" stroke="#40B954" stroke-width="2.5" stroke-linecap="round" stroke-linejoin="round"/>
<path d="M40.3333 7.69996V7.90163C40.3333 8.41496 39.93 8.81829 39.4167 8.81829H22.9167C22.4033 8.81829 22 8.41496 22 7.90163V7.69996C22 4.47329 22.8067 3.66663 26.07 3.66663H36.2633C39.5267 3.66663 40.3333 4.47329 40.3333 7.69996Z" fill="#292D32"/>
<path d="M22.9167 10.6516C22.4033 10.6516 22 11.0549 22 11.5683V13.4016V15.2166C22 18.4433 22.8067 19.2499 26.07 19.2499H36.2633C39.5267 19.2499 40.3333 18.4433 40.3333 15.2166V13.4016V11.5683C40.3333 11.0549 39.93 10.6516 39.4167 10.6516H22.9167Z" fill="#292D32"/>
<path d="M22 28.7833V28.985C22 29.4983 21.5967 29.9017 21.0833 29.9017H4.58334C4.07001 29.9017 3.66667 29.4983 3.66667 28.985V28.7833C3.66667 25.5567 4.47334 24.75 7.73667 24.75H17.93C21.1933 24.75 22 25.5567 22 28.7833Z" fill="#292D32"/>
<path d="M4.58334 31.735C4.07001 31.735 3.66667 32.1383 3.66667 32.6517V34.485V36.3C3.66667 39.5267 4.47334 40.3333 7.73667 40.3333H17.93C21.1933 40.3333 22 39.5267 22 36.3V34.485V32.6517C22 32.1383 21.5967 31.735 21.0833 31.735H4.58334Z" fill="#292D32"/>
</svg>
