<svg width="44" height="44" viewBox="0 0 44 44" fill="none" xmlns="http://www.w3.org/2000/svg">
<path d="M26.6383 17.3616L17.3616 26.6383C16.17 25.4466 15.4366 23.815 15.4366 22C15.4366 18.37 18.37 15.4366 22 15.4366C23.815 15.4366 25.4466 16.17 26.6383 17.3616Z" stroke="#40B954" stroke-width="2.5" stroke-linecap="round" stroke-linejoin="round"/>
<path d="M32.67 10.5784C29.4617 8.15838 25.795 6.83838 22 6.83838C15.5284 6.83838 9.49668 10.6517 5.29835 17.2517C3.64835 19.8367 3.64835 24.1817 5.29835 26.7667C6.74669 29.04 8.43335 31.0017 10.2667 32.5784" stroke="#292D32" stroke-width="2.5" stroke-linecap="round" stroke-linejoin="round"/>
<path d="M15.4366 35.805C17.5266 36.685 19.745 37.1617 22 37.1617C28.4716 37.1617 34.5033 33.3483 38.7016 26.7483C40.3516 24.1633 40.3516 19.8183 38.7016 17.2333C38.0966 16.28 37.4366 15.3817 36.7583 14.5383" stroke="#292D32" stroke-width="2.5" stroke-linecap="round" stroke-linejoin="round"/>
<path d="M28.435 23.2833C27.9583 25.8683 25.85 27.9767 23.265 28.4533" stroke="#40B954" stroke-width="2.5" stroke-linecap="round" stroke-linejoin="round"/>
<path d="M17.3617 26.6383L3.66669 40.3333" stroke="#292D32" stroke-width="2.5" stroke-linecap="round" stroke-linejoin="round"/>
<path d="M40.3333 3.66663L26.6383 17.3616" stroke="#292D32" stroke-width="2.5" stroke-linecap="round" stroke-linejoin="round"/>
</svg>
