<svg width="44" height="44" viewBox="0 0 44 44" fill="none" xmlns="http://www.w3.org/2000/svg">
<path d="M16.5 40.3333H27.5C36.6667 40.3333 40.3334 36.6666 40.3334 27.5V16.5C40.3334 7.33329 36.6667 3.66663 27.5 3.66663H16.5C7.33335 3.66663 3.66669 7.33329 3.66669 16.5V27.5C3.66669 36.6666 7.33335 40.3333 16.5 40.3333Z" stroke="#101010" stroke-width="3" stroke-linecap="round" stroke-linejoin="round"/>
<g opacity="0.4">
<path d="M29.8452 24.951C27.7736 27.0227 24.8035 27.6643 22.1819 26.8393L17.4336 31.5693C17.1035 31.9177 16.4252 32.1377 15.9302 32.0643L13.7302 31.771C12.9969 31.6793 12.3369 30.9827 12.2269 30.2677L11.9336 28.0677C11.8602 27.591 12.0986 26.9127 12.4286 26.5643L17.1585 21.8343C16.3519 19.2127 16.9752 16.2426 19.0469 14.171C22.0169 11.201 26.8569 11.201 29.8452 14.171C32.8152 17.1227 32.8152 21.9627 29.8452 24.951Z" fill="#40B954"/>
</g>
</svg>
