<svg width="46" height="46" viewBox="0 0 46 46" fill="none" xmlns="http://www.w3.org/2000/svg">
<path d="M5.75 30.6667V28.75C16.9433 32.4875 29.0567 32.4875 40.25 28.75V30.6667" stroke="#292D32" stroke-width="2.5" stroke-linecap="round" stroke-linejoin="round"/>
<path d="M5.75 17.2499C16.9433 13.5124 29.0567 13.5124 40.25 17.2499" stroke="#292D32" stroke-width="2.5" stroke-linecap="round" stroke-linejoin="round"/>
<path d="M15.3333 5.75H17.25C13.5125 16.9433 13.5125 29.0567 17.25 40.25H15.3333" stroke="#72E485" stroke-width="2.5" stroke-linecap="round" stroke-linejoin="round"/>
<path d="M28.75 5.75C32.4875 16.9433 32.4875 29.0567 28.75 40.25" stroke="#72E485" stroke-width="2.5" stroke-linecap="round" stroke-linejoin="round"/>
<path d="M23 42.1666C33.5855 42.1666 42.1667 33.5854 42.1667 22.9999C42.1667 12.4145 33.5855 3.83325 23 3.83325C12.4145 3.83325 3.83334 12.4145 3.83334 22.9999C3.83334 33.5854 12.4145 42.1666 23 42.1666Z" stroke="#292D32" stroke-width="2.5" stroke-linecap="round" stroke-linejoin="round"/>
</svg>
